<?xml version="1.0" encoding="UTF-8"?>
<svg id="Camada_1" data-name="Camada 1" xmlns="http://www.w3.org/2000/svg" viewBox="0 0 382 143">
  <defs>
    <style>
      .cls-1 {
        fill: #fff;
      }

      .cls-2 {
        fill: #ed1c24;
      }
    </style>
  </defs>
  <rect class="cls-2" x="30" y="33.22" width="323" height="81.8"/>
  <g>
    <path class="cls-1" d="m108.94,62c3.03-14.48-5.89-18.18-22.22-18.01-13.8,0-26.09,7.07-26.93,21.38-.67,10.94,11.61,12.46,20.03,14.81,3.03.84,8.92,2.69,8.58,6.73-.34,4.21-6.4,6.23-9.59,6.4-5.72.34-9.59-2.69-8.42-8.08h-16.83l-.17,1.35c-1.01,16.83,11.61,18.35,23.4,18.35,6.56,0,12.29-1.51,15.99-3.37,3.53-1.85,7.07-4.38,9.09-7.24,3.87-5.22,5.55-13.63,2.02-19.02-3.7-5.55-12.29-5.89-18.35-8.25-2.02-.67-9.59-1.35-7.91-6.56,2.86-8.42,17.17-6.56,14.81,1.68l16.5-.17Z"/>
    <rect class="cls-1" x="30" y="44.66" width="17.17" height="1.68"/>
    <rect class="cls-1" x="30" y="67.55" width="17.17" height="1.68"/>
    <rect class="cls-1" x="30" y="56.11" width="17.17" height="1.68"/>
    <polygon class="cls-1" points="165.5 56.44 167.68 45 123.08 45 110.79 103.41 155.9 103.41 158.76 92.13 129.98 92.13 132.34 79.84 158.76 79.84 161.29 68.06 134.86 68.06 136.71 56.44 165.5 56.44"/>
    <polygon class="cls-1" points="317.32 103.41 329.77 45 313.11 45 300.65 103.41 317.32 103.41"/>
    <path class="cls-1" d="m251.17,92.3h23.4l1.68,11.11h18.51l-11.11-58.41h-20.03l-35.51,58.41h16.83l6.23-11.11Zm19.36-36.02h.17l2.69,24.41h-15.65l12.79-24.41Z"/>
    <rect class="cls-1" x="30" y="79" width="17.17" height="1.68"/>
    <polygon class="cls-1" points="189.23 58.97 189.4 58.97 199.5 103.41 221.88 103.41 234.67 44.83 219.69 44.83 210.77 87.25 210.6 87.25 200.17 44.83 177.28 44.83 164.99 103.41 179.47 103.41 189.23 58.97"/>
    <rect class="cls-1" x="335.83" y="102.06" width="17.17" height="1.68"/>
    <rect class="cls-1" x="335.83" y="56.11" width="17.17" height="1.68"/>
    <rect class="cls-1" x="335.83" y="67.55" width="17.17" height="1.68"/>
    <rect class="cls-1" x="335.83" y="44.66" width="17.17" height="1.68"/>
    <rect class="cls-1" x="335.83" y="79" width="17.17" height="1.68"/>
    <rect class="cls-1" x="30" y="90.61" width="17.17" height="1.68"/>
    <rect class="cls-1" x="30" y="102.06" width="17.17" height="1.68"/>
    <rect class="cls-1" x="335.83" y="90.61" width="17.17" height="1.68"/>
  </g>
</svg>